<svg width="80" height="38" viewBox="0 0 80 38" fill="none" xmlns="http://www.w3.org/2000/svg">
<g clip-path="url(#clip0_516_827)">
<path d="M41.3102 14.6406C39.8148 14.4548 38.7684 14.3615 38.1708 14.3607C37.5732 14.3607 37.1881 14.4133 37.0128 14.5186C36.9257 14.5704 36.855 14.6442 36.8082 14.732C36.7613 14.8198 36.7402 14.9183 36.7472 15.0169C36.7434 15.1225 36.776 15.2262 36.84 15.3118C36.904 15.3974 36.9956 15.4599 37.1004 15.4895C37.3359 15.5751 37.9393 15.7036 38.9105 15.8748C39.8817 16.046 40.5722 16.323 40.9821 16.7057C41.3921 17.091 41.597 17.7151 41.597 18.5781C41.597 20.4685 40.3845 21.4137 37.9596 21.4137C36.9866 21.3951 36.0174 21.2894 35.0646 21.0978L34.4856 20.9925L34.5586 19.0328C36.0539 19.2203 37.0942 19.3136 37.6794 19.3127C38.2651 19.3127 38.6621 19.2575 38.8746 19.1471C38.9717 19.1023 39.0532 19.0313 39.1093 18.9426C39.1654 18.8539 39.1937 18.7514 39.1907 18.6475C39.1932 18.5426 39.1625 18.4396 39.1027 18.3521C39.0429 18.2646 38.9568 18.197 38.856 18.1582C38.6329 18.0529 38.0539 17.9244 37.119 17.7729C36.1841 17.6214 35.4873 17.3645 35.0287 17.0024C34.5701 16.6402 34.3408 15.9955 34.3408 15.0683C34.3408 14.1411 34.6688 13.442 35.3249 12.9711C35.9756 12.4985 36.814 12.2622 37.8401 12.2622C38.5484 12.2622 39.5196 12.3731 40.7537 12.5948L41.3513 12.6989L41.3102 14.6406Z" fill="#536BFF"/>
<path d="M45.7794 21.2055H43.3545V8.95508H45.7794V15.9247L46.7024 15.7667L48.4939 12.4572H51.2083L48.8551 16.604L51.3344 21.2068H48.6041L46.7754 17.7945L45.7807 17.9512L45.7794 21.2055Z" fill="#536BFF"/>
<path d="M52.7832 21.2055V8.95508H55.2068V21.2055H52.7832Z" fill="#536BFF"/>
<path d="M64.4912 15.1852V18.826C64.4942 19.0292 64.5437 19.2292 64.636 19.4116C64.7077 19.5234 64.8591 19.6017 65.0875 19.6479L65.0158 21.4164C64.5206 21.4255 64.0259 21.3824 63.5404 21.2879C63.1416 21.1922 62.7643 21.0263 62.4275 20.7986C61.6022 21.1963 60.6936 21.4059 59.7715 21.4112C57.9017 21.4112 56.9668 20.4545 56.9668 18.5409C56.9668 17.6077 57.2262 16.9455 57.745 16.5542C58.2638 16.1629 59.0606 15.9326 60.1354 15.8633L62.0716 15.7233V15.1801C62.0716 14.8196 61.9871 14.5718 61.818 14.4365C61.6493 14.3081 61.3771 14.2361 61.0039 14.2361L57.5963 14.3838L57.5246 12.7554C58.7232 12.4277 59.9615 12.2549 61.2071 12.2417C62.3704 12.2417 63.2088 12.475 63.7223 12.9416C64.2358 13.4082 64.4921 14.1561 64.4912 15.1852ZM60.4196 17.4968C59.7432 17.5559 59.4054 17.9061 59.4063 18.5473C59.4072 19.1886 59.702 19.5088 60.2908 19.508C60.7987 19.5016 61.3036 19.4313 61.7927 19.2986L62.065 19.228V17.3556L60.4196 17.4968Z" fill="#536BFF"/>
<path d="M74.5004 8.95508V21.2055H72.0914V20.8382C71.2468 21.2235 70.5168 21.4161 69.9015 21.4161C68.5868 21.4161 67.6701 21.0484 67.1513 20.313C66.6325 19.5775 66.373 18.4144 66.373 16.8237C66.373 15.2312 66.6829 14.0707 67.3026 13.3421C67.9224 12.6135 68.8608 12.2479 70.118 12.2453C70.6585 12.2616 71.1967 12.3201 71.7275 12.42L72.0715 12.4906V8.95508H74.5004ZM71.8218 19.1006L72.0755 19.048V14.4504C71.4911 14.3413 70.8978 14.2828 70.3026 14.2757C69.3287 14.2757 68.8418 15.1156 68.8418 16.7954C68.8418 17.7064 68.9503 18.3541 69.1672 18.7385C69.3841 19.1229 69.7431 19.3151 70.2442 19.3151C70.7762 19.3103 71.3055 19.2399 71.8192 19.1058L71.8218 19.1006Z" fill="#536BFF"/>
<path d="M39.1932 25.6856C40.4601 25.6856 41.3862 26.0212 41.9714 26.6924C42.5566 27.3636 42.8492 28.5623 42.8492 30.2883C42.8492 32.016 42.5114 33.2091 41.8359 33.8675C41.1604 34.5259 39.9962 34.8555 38.3433 34.8564C37.8236 34.8564 36.8763 34.7982 35.5014 34.6817L34.8135 34.6111V22.394H37.2384V26.1556C38.0113 25.8422 38.6629 25.6856 39.1932 25.6856ZM38.3433 32.7489C39.1507 32.7489 39.6934 32.5593 39.9714 32.18C40.2494 31.8007 40.388 31.1209 40.3871 30.1406C40.3871 28.5661 39.8807 27.7789 38.8679 27.7789C38.4032 27.7763 37.9403 27.8351 37.4921 27.9535L37.2384 28.0062V32.6783C37.7935 32.7254 38.1618 32.7489 38.3433 32.7489Z" fill="#536BFF"/>
<path d="M45.1522 26.8821C45.7905 26.0833 46.8582 25.6835 48.3553 25.6826C49.8524 25.6818 50.9201 26.0816 51.5585 26.8821C52.1968 27.6809 52.5164 28.8038 52.5173 30.2507C52.5173 33.3183 51.13 34.8526 48.3553 34.8534C45.5807 34.8543 44.1934 33.32 44.1934 30.2507C44.1898 28.8046 44.5095 27.6818 45.1522 26.8821ZM47.0194 32.2348C47.2677 32.6548 47.7099 32.8641 48.3474 32.8641C48.9848 32.8641 49.4297 32.6548 49.6754 32.2348C49.921 31.8149 50.0459 31.1561 50.0459 30.2571C50.0459 29.3581 49.9224 28.7057 49.6754 28.2973C49.4284 27.889 48.9835 27.6848 48.3474 27.6848C47.7113 27.6848 47.2651 27.889 47.0194 28.2973C46.7737 28.7057 46.6489 29.3594 46.6489 30.2571C46.6489 31.1548 46.7724 31.8085 47.0194 32.2348Z" fill="#536BFF"/>
<path d="M59.2977 27.8877H57.072V31.4759C57.072 31.8252 57.0813 32.0744 57.0986 32.2195C57.1164 32.3639 57.187 32.4974 57.2978 32.5958C57.4477 32.7118 57.6376 32.7683 57.829 32.7537L59.2048 32.7178L59.3137 34.5915C58.7089 34.7371 58.0904 34.8232 57.4678 34.8484C56.3815 34.8484 55.6395 34.612 55.242 34.1394C54.8445 33.6668 54.6453 32.7948 54.6444 31.5234V27.8877H53.582V25.8933H54.6444V23.4609H57.0694V25.8933H59.2951L59.2977 27.8877Z" fill="#536BFF"/>
<path d="M60.7646 34.6428V31.7378H63.3702V34.6428H60.7646Z" fill="#536BFF"/>
<path d="M65.5039 34.6427V25.8931H67.9102V26.8203C68.8021 26.2858 69.7816 25.9019 70.8066 25.6851V28.0481C69.8327 28.2476 68.9943 28.4518 68.2914 28.6607L67.9288 28.7827V34.6452L65.5039 34.6427Z" fill="#536BFF"/>
<path d="M77.5739 25.8931H79.9989V34.6426H77.5925V34.1533C76.724 34.6191 75.9715 34.8524 75.3349 34.8533C74.0795 34.8533 73.2354 34.5176 72.8024 33.8464C72.3695 33.1752 72.1522 32.0523 72.1504 30.4778V25.8931H74.5753V30.5164C74.5753 31.3802 74.6479 31.9697 74.7931 32.2848C74.9383 32.5998 75.288 32.7574 75.8422 32.7574C76.3538 32.7604 76.862 32.6774 77.3442 32.5121L77.5793 32.4414L77.5739 25.8931Z" fill="#536BFF"/>
<path d="M12.9916 30.7888H12.9757C12.7865 30.82 12.5929 30.8148 12.4059 30.7735C12.2188 30.7323 12.042 30.6558 11.8855 30.5485C11.729 30.4411 11.5959 30.3051 11.4938 30.148C11.3917 29.9909 11.3226 29.8159 11.2904 29.633L7.4658 7.54397C7.35281 6.79973 6.97246 6.11773 6.39145 5.6176C5.90806 5.2182 5.34765 5.04611 4.81512 5.13215H4.78856C3.68897 5.32479 2.70891 6.21092 2.96123 7.77513L3.2348 8.92197C3.27787 9.10301 3.28365 9.29049 3.25181 9.47369C3.21996 9.6569 3.15111 9.83224 3.04919 9.98972C2.94727 10.1472 2.81427 10.2837 2.65779 10.3915C2.50132 10.4992 2.32442 10.5762 2.13721 10.6178C1.94999 10.6595 1.75613 10.6651 1.56668 10.6343C1.37723 10.6035 1.19592 10.5369 1.03308 10.4383C0.870238 10.3398 0.729068 10.2111 0.617628 10.0598C0.506188 9.9085 0.426659 9.73743 0.383584 9.55638L0.0900958 8.32222L0.0834558 8.28113C-0.4172 5.39414 1.37958 2.85133 4.26931 2.35047L4.3304 2.3402C5.72878 2.11289 7.13513 2.51101 8.28916 3.46777C9.39526 4.39763 10.1277 5.67425 10.3582 7.07393L14.1828 29.163C14.2468 29.5312 14.1573 29.9089 13.9341 30.2136C13.7109 30.5183 13.372 30.7251 12.9916 30.7888Z" fill="#536BFF"/>
<path d="M30.5648 34.5915H30.5529L19.4428 36.428C19.0603 36.4912 18.6676 36.4048 18.3509 36.188C18.0342 35.9711 17.8196 35.6414 17.7543 35.2715C17.689 34.9016 17.7782 34.5218 18.0025 34.2156C18.2268 33.9093 18.5677 33.7018 18.9502 33.6386L30.0602 31.8034C30.4423 31.7387 30.8354 31.8235 31.153 32.039C31.4705 32.2546 31.6865 32.5833 31.7534 32.9528C31.8203 33.3224 31.7327 33.7025 31.5098 34.0096C31.2869 34.3167 30.947 34.5255 30.5648 34.5903V34.5915Z" fill="#536BFF"/>
<path d="M13.4375 37.5003C13.2654 37.5001 13.0936 37.4872 12.9235 37.4617C12.5064 37.4013 12.1062 37.2598 11.7472 37.0457C11.3881 36.8316 11.0777 36.5493 10.8346 36.216C10.6027 35.9004 10.4394 35.5427 10.3545 35.1643C10.2696 34.786 10.2649 34.395 10.3406 34.0148C10.6553 32.4057 12.3113 31.3115 14.0298 31.5747C14.4469 31.6353 14.847 31.7768 15.2062 31.9906C15.5654 32.2045 15.8762 32.4863 16.12 32.8192C16.3513 33.1353 16.5142 33.4933 16.5989 33.8718C16.6835 34.2503 16.6882 34.6414 16.6127 35.0217C16.3338 36.4729 14.9607 37.5003 13.4375 37.5003ZM13.5118 33.0529C13.1336 33.0465 12.7647 33.167 12.4679 33.3938C12.1711 33.6207 11.9646 33.94 11.8837 34.2973C11.8477 34.4779 11.85 34.6637 11.8904 34.8433C11.9308 35.023 12.0085 35.1929 12.1188 35.3427C12.2419 35.5086 12.3985 35.6486 12.579 35.7546C12.7595 35.8605 12.9602 35.9301 13.1692 35.9592C14.059 36.0953 14.9115 35.5482 15.0696 34.7366C15.1056 34.556 15.1033 34.3702 15.0629 34.1906C15.0225 34.0109 14.9448 33.841 14.8345 33.6912C14.7115 33.5251 14.555 33.3848 14.3745 33.2786C14.194 33.1725 13.9932 33.1027 13.7841 33.0735C13.694 33.0597 13.603 33.0528 13.5118 33.0529V33.0529Z" fill="#536BFF"/>
<path d="M27.5321 7.89308L26.3369 1.17133C26.2637 0.796371 26.0397 0.464783 25.7141 0.249306C25.3885 0.0338286 24.9877 -0.0479434 24.5998 0.0219281L13.0356 1.93289H13.0223C12.6387 1.99729 12.2951 2.20133 12.0622 2.50309C11.9448 2.65446 11.8607 2.82745 11.815 3.01143C11.7693 3.1954 11.7631 3.38647 11.7966 3.57287L12.9918 10.2946C13.0653 10.6691 13.2891 11.0003 13.6144 11.2157C13.9396 11.4311 14.3398 11.5132 14.7275 11.444L26.2944 9.53563H26.3076C26.7039 9.46897 27.0567 9.25335 27.289 8.93588C27.3992 8.78642 27.4774 8.6172 27.5192 8.43815C27.5609 8.25909 27.5653 8.07379 27.5321 7.89308V7.89308Z" fill="#536BFF"/>
<path d="M16.4292 21.8028L27.9934 19.8919H28.0067C28.4027 19.8256 28.7556 19.6105 28.9881 19.2934C29.0985 19.1442 29.1772 18.9754 29.2196 18.7966C29.262 18.6178 29.2672 18.4326 29.2351 18.2519L28.0399 11.5301C27.9679 11.1544 27.7447 10.8217 27.4193 10.605C27.0939 10.3883 26.6928 10.3053 26.3042 10.3743L14.74 12.2891H14.7267C14.3308 12.3559 13.9782 12.5709 13.7453 12.8876C13.6349 13.0367 13.5562 13.2056 13.5138 13.3844C13.4714 13.5632 13.4661 13.7483 13.4983 13.9291L14.6935 20.6508C14.766 21.026 14.9896 21.358 15.315 21.574C15.6404 21.7899 16.0411 21.8722 16.4292 21.8028Z" fill="#536BFF"/>
<path d="M30.9489 28.6657L29.7537 21.9426C29.6799 21.5689 29.4563 21.2385 29.1317 21.0234C28.8071 20.8084 28.4078 20.7261 28.0207 20.7945L16.4525 22.7055H16.4392C16.2432 22.7381 16.0558 22.8077 15.8876 22.9104C15.7195 23.0131 15.5739 23.1468 15.4592 23.3039C15.3488 23.4531 15.2701 23.622 15.2277 23.8007C15.1853 23.9795 15.18 24.1647 15.2122 24.3455L16.4074 31.0672C16.4812 31.4418 16.7053 31.773 17.0307 31.9884C17.3562 32.2037 17.7566 32.2858 18.1444 32.2166L29.7073 30.3082H29.7219C30.1174 30.2416 30.4697 30.0264 30.7019 29.7098C30.8127 29.5603 30.8916 29.391 30.934 29.2117C30.9764 29.0325 30.9815 28.8468 30.9489 28.6657V28.6657Z" fill="#536BFF"/>
</g>
<defs>
<clipPath id="clip0_516_827">
<rect width="80" height="37.5" fill="white"/>
</clipPath>
</defs>
</svg>
